<svg xmlns="http://www.w3.org/2000/svg" viewBox="0 0 900 520" role="img" aria-label="Factory floor placeholder">
  <defs>
    <linearGradient id="bg" x1="0" x2="1">
      <stop stop-color="#dfe8eb"/><stop stop-color="#f7fafb"/>
    </linearGradient>
    <linearGradient id="floor" x1="0" x2="0" y1="0" y2="1">
      <stop stop-color="#7dcad0"/><stop offset="1" stop-color="#2d8d98"/>
    </linearGradient>
  </defs>
  <rect width="900" height="520" fill="url(#bg)"/>
  <path d="M0 360 L900 300 L900 520 L0 520 Z" fill="url(#floor)"/>
  <g stroke="#8aa5ad" stroke-width="5" opacity=".6">
    <path d="M80 70 V365"/><path d="M240 54 V352"/><path d="M420 48 V340"/><path d="M620 65 V326"/><path d="M790 86 V315"/>
    <path d="M0 115 H900"/><path d="M0 180 H900"/><path d="M0 245 H900"/>
  </g>
  <g fill="#f21d2f">
    <rect x="95" y="330" width="190" height="18"/><rect x="380" y="304" width="220" height="18"/>
  </g>
  <g fill="#263845">
    <rect x="120" y="270" width="120" height="80"/><rect x="405" y="240" width="150" height="85"/><rect x="650" y="235" width="100" height="80"/>
  </g>
  <g stroke="#ffffff" stroke-width="8" opacity=".55">
    <path d="M40 412 H860"/><path d="M80 470 H820"/>
  </g>
</svg>
