<svg xmlns="http://www.w3.org/2000/svg" viewBox="0 0 1600 900" role="img" aria-label="Aerial factory placeholder">
  <defs>
    <linearGradient id="sky" x1="0" x2="0" y1="0" y2="1">
      <stop stop-color="#7ca7bf" offset="0"/>
      <stop stop-color="#d7e7eb" offset="0.42"/>
      <stop stop-color="#6f8f55" offset="1"/>
    </linearGradient>
    <linearGradient id="roof" x1="0" x2="1">
      <stop stop-color="#6fb6c6"/>
      <stop stop-color="#2f7188"/>
    </linearGradient>
    <filter id="shadow" x="-20%" y="-20%" width="140%" height="140%">
      <feDropShadow dx="0" dy="18" stdDeviation="18" flood-color="#14323d" flood-opacity=".25"/>
    </filter>
  </defs>
  <rect width="1600" height="900" fill="url(#sky)"/>
  <path d="M0 500 C240 430 390 510 600 450 C840 380 1020 410 1230 350 C1390 306 1500 310 1600 285 L1600 900 L0 900 Z" fill="#2f6d38"/>
  <g opacity=".24" stroke="#d7efc4" stroke-width="3">
    <path d="M-80 760 L1680 330"/><path d="M-80 820 L1680 410"/><path d="M-80 680 L1680 250"/>
    <path d="M80 900 L520 390"/><path d="M260 900 L705 360"/><path d="M460 900 L880 330"/>
  </g>
  <path d="M1110 485 L1600 650 L1600 715 L1040 535 Z" fill="#58606b"/>
  <path d="M1130 497 L1600 655" stroke="#f2f4f5" stroke-width="9"/>
  <g filter="url(#shadow)">
    <path d="M360 360 L1030 250 L1280 375 L610 505 Z" fill="#f5f7f7"/>
    <path d="M400 340 L1035 242 L1260 354 L630 468 Z" fill="url(#roof)"/>
    <g stroke="#d7eef4" stroke-width="7" opacity=".75">
      <path d="M460 331 L690 448"/><path d="M570 314 L800 429"/><path d="M680 298 L910 410"/><path d="M790 280 L1025 390"/><path d="M900 264 L1140 371"/>
    </g>
    <path d="M610 505 L1280 375 L1280 485 L610 620 Z" fill="#e7ecef"/>
    <path d="M360 360 L610 505 L610 620 L360 470 Z" fill="#d8e0e4"/>
    <g fill="#183140">
      <rect x="675" y="493" width="46" height="64"/><rect x="760" y="476" width="46" height="64"/><rect x="845" y="459" width="46" height="64"/>
      <rect x="930" y="442" width="46" height="64"/><rect x="1015" y="425" width="46" height="64"/><rect x="1100" y="408" width="46" height="64"/>
    </g>
  </g>
  <g filter="url(#shadow)" opacity=".95">
    <path d="M120 550 L470 480 L635 565 L285 645 Z" fill="#f3f6f7"/>
    <path d="M145 532 L470 474 L615 548 L290 615 Z" fill="#4d9db0"/>
    <path d="M285 645 L635 565 L635 640 L285 725 Z" fill="#dfe7ea"/>
    <path d="M120 550 L285 645 L285 725 L120 620 Z" fill="#cfd9df"/>
  </g>
  <g fill="#f21d2f">
    <rect x="710" y="438" width="76" height="22" rx="4"/><rect x="262" y="592" width="58" height="18" rx="3"/>
  </g>
</svg>
